<svg width="132" height="32" viewBox="0 0 132 32" fill="none" xmlns="http://www.w3.org/2000/svg">
<path d="M6.74 21.576V31H0.242V4.134H10.768C13.96 4.134 16.392 4.932 18.064 6.528C19.736 8.09867 20.572 10.2267 20.572 12.912C20.572 14.584 20.192 16.0787 19.432 17.396C18.6973 18.688 17.5953 19.714 16.126 20.474C14.6567 21.2087 12.8707 21.576 10.768 21.576H6.74ZM10.046 16.37C12.6553 16.37 13.96 15.2173 13.96 12.912C13.96 10.556 12.6553 9.378 10.046 9.378H6.74V16.37H10.046ZM42.9093 19.828C42.9093 20.36 42.846 20.9427 42.7193 21.576H28.0133C28.0893 23.172 28.4947 24.3247 29.2293 25.034C29.964 25.718 30.9013 26.06 32.0413 26.06C33.004 26.06 33.802 25.8193 34.4353 25.338C35.0687 24.8567 35.4867 24.236 35.6893 23.476H42.5673C42.2887 24.9707 41.6807 26.3133 40.7433 27.504C39.806 28.6693 38.6153 29.594 37.1713 30.278C35.7273 30.9367 34.1187 31.266 32.3453 31.266C30.268 31.266 28.4187 30.8353 26.7973 29.974C25.2013 29.0873 23.9473 27.8207 23.0353 26.174C22.1233 24.5273 21.6673 22.602 21.6673 20.398C21.6673 18.1687 22.1107 16.2433 22.9973 14.622C23.9093 12.9753 25.176 11.7213 26.7973 10.86C28.4187 9.97333 30.268 9.53 32.3453 9.53C34.448 9.53 36.2973 9.96067 37.8933 10.822C39.4893 11.6833 40.718 12.8993 41.5793 14.47C42.466 16.0153 42.9093 17.8013 42.9093 19.828ZM36.3353 18.84C36.3607 17.4467 35.9807 16.408 35.1953 15.724C34.4353 15.0147 33.4853 14.66 32.3453 14.66C31.1547 14.66 30.1667 15.0147 29.3813 15.724C28.596 16.4333 28.1527 17.472 28.0513 18.84H36.3353ZM58.7487 9.568C61.1807 9.568 63.106 10.3787 64.5247 12C65.9687 13.6213 66.6907 15.8507 66.6907 18.688V31H60.1927V19.448C60.1927 18.0293 59.8127 16.9273 59.0527 16.142C58.318 15.3313 57.33 14.926 56.0887 14.926C54.7714 14.926 53.72 15.344 52.9347 16.18C52.1747 17.016 51.7947 18.2067 51.7947 19.752V31H45.2967V9.796H51.7947V13.672C52.4027 12.4053 53.302 11.4047 54.4927 10.67C55.7087 9.93533 57.1274 9.568 58.7487 9.568ZM81.9844 25.414V31H79.0584C76.5757 31 74.6377 30.392 73.2444 29.176C71.8764 27.9347 71.1924 25.8953 71.1924 23.058V15.268H68.3424V9.796H71.1924V4.59H77.6904V9.796H81.9464V15.268H77.6904V23.172C77.6904 24.008 77.855 24.5907 78.1844 24.92C78.539 25.2493 79.1217 25.414 79.9324 25.414H81.9844ZM91.1345 13.786C91.9452 12.494 92.9839 11.468 94.2505 10.708C95.5425 9.948 96.9359 9.568 98.4305 9.568V16.522H96.5685C94.8459 16.522 93.5032 16.8893 92.5405 17.624C91.6032 18.3587 91.1345 19.6 91.1345 21.348V31H84.6365V9.796H91.1345V13.786ZM99.5422 3.83C99.5422 2.842 99.8969 2.03133 100.606 1.398C101.316 0.739331 102.253 0.409997 103.418 0.409997C104.584 0.409997 105.521 0.739331 106.23 1.398C106.94 2.03133 107.294 2.842 107.294 3.83C107.294 4.79267 106.94 5.60333 106.23 6.262C105.521 6.89533 104.584 7.212 103.418 7.212C102.253 7.212 101.316 6.89533 100.606 6.262C99.8969 5.60333 99.5422 4.79267 99.5422 3.83ZM106.648 9.796V31H100.15V9.796H106.648ZM118.191 9.53C119.812 9.53 121.205 9.89733 122.371 10.632C123.536 11.3667 124.397 12.3673 124.955 13.634V9.796H131.415V31H124.955V27.162C124.397 28.4287 123.536 29.4293 122.371 30.164C121.205 30.8987 119.812 31.266 118.191 31.266C116.443 31.266 114.872 30.8353 113.479 29.974C112.111 29.0873 111.021 27.8207 110.211 26.174C109.425 24.5273 109.033 22.602 109.033 20.398C109.033 18.1687 109.425 16.2433 110.211 14.622C111.021 12.9753 112.111 11.7213 113.479 10.86C114.872 9.97333 116.443 9.53 118.191 9.53ZM120.281 15.23C118.887 15.23 117.76 15.686 116.899 16.598C116.063 17.51 115.645 18.7767 115.645 20.398C115.645 22.0193 116.063 23.286 116.899 24.198C117.76 25.11 118.887 25.566 120.281 25.566C121.649 25.566 122.763 25.0973 123.625 24.16C124.511 23.2227 124.955 21.9687 124.955 20.398C124.955 18.802 124.511 17.548 123.625 16.636C122.763 15.6987 121.649 15.23 120.281 15.23Z" fill="#3E1992"/>
</svg>
